<svg xmlns="http://www.w3.org/2000/svg" xmlns:xlink="http://www.w3.org/1999/xlink" width="500" zoomAndPan="magnify" viewBox="0 0 375 374.999991" height="500" preserveAspectRatio="xMidYMid meet" version="1.0"><defs><clipPath id="f20c63fee6"><path d="M 131.25 131.25 L 243.75 131.25 L 243.75 243.75 L 131.25 243.75 Z M 131.25 131.25 " clip-rule="nonzero"/></clipPath><clipPath id="956fbce5fb"><path d="M 187.5 131.25 C 156.433594 131.25 131.25 156.433594 131.25 187.5 C 131.25 218.566406 156.433594 243.75 187.5 243.75 C 218.566406 243.75 243.75 218.566406 243.75 187.5 C 243.75 156.433594 218.566406 131.25 187.5 131.25 Z M 187.5 131.25 " clip-rule="nonzero"/></clipPath><clipPath id="86724ebdba"><path d="M 0.25 0.25 L 112.75 0.25 L 112.75 112.75 L 0.25 112.75 Z M 0.25 0.25 " clip-rule="nonzero"/></clipPath><clipPath id="282a6aa3eb"><path d="M 56.5 0.25 C 25.433594 0.25 0.25 25.433594 0.25 56.5 C 0.25 87.566406 25.433594 112.75 56.5 112.75 C 87.566406 112.75 112.75 87.566406 112.75 56.5 C 112.75 25.433594 87.566406 0.25 56.5 0.25 Z M 56.5 0.25 " clip-rule="nonzero"/></clipPath><clipPath id="6efe8b6611"><rect x="0" width="113" y="0" height="113"/></clipPath><clipPath id="7020faf746"><path d="M 146 141.417969 L 229 141.417969 L 229 233.667969 L 146 233.667969 Z M 146 141.417969 " clip-rule="nonzero"/></clipPath></defs><g clip-path="url(#f20c63fee6)"><g clip-path="url(#956fbce5fb)"><g transform="matrix(1, 0, 0, 1, 131, 131)"><g clip-path="url(#6efe8b6611)"><g clip-path="url(#86724ebdba)"><g clip-path="url(#282a6aa3eb)"><path fill="#7ed957" d="M 0.25 0.25 L 112.75 0.25 L 112.75 112.75 L 0.25 112.75 Z M 0.25 0.25 " fill-opacity="1" fill-rule="nonzero"/></g></g></g></g><path stroke-linecap="butt" transform="matrix(0.75, 0, 0, 0.75, 131.249996, 131.249991)" fill="none" stroke-linejoin="miter" d="M 75.00001 0.0000114917 C 33.578133 0.0000114917 0.00000549167 33.578139 0.00000549167 75.000016 C 0.00000549167 116.421894 33.578133 150.000021 75.00001 150.000021 C 116.421888 150.000021 150.000015 116.421894 150.000015 75.000016 C 150.000015 33.578139 116.421888 0.0000114917 75.00001 0.0000114917 Z M 75.00001 0.0000114917 " stroke="#000000" stroke-width="2" stroke-opacity="1" stroke-miterlimit="4"/></g></g><g clip-path="url(#7020faf746)"><path fill="#ffffff" d="M 228.429688 208.679688 C 220.761719 223.472656 205.308594 233.582031 187.496094 233.582031 C 169.683594 233.582031 154.234375 223.472656 146.566406 208.679688 C 154.652344 221.6875 169.953125 230.460938 187.496094 230.460938 C 205.042969 230.460938 220.34375 221.6875 228.429688 208.679688 M 187.496094 141.417969 C 205.308594 141.417969 220.761719 151.527344 228.429688 166.316406 C 220.34375 153.3125 205.042969 144.539062 187.496094 144.539062 C 169.949219 144.539062 154.652344 153.3125 146.566406 166.316406 C 154.234375 151.527344 169.683594 141.417969 187.496094 141.417969 Z M 187.496094 141.417969 " fill-opacity="1" fill-rule="evenodd"/></g><path fill="#ffffff" d="M 167.101562 224.675781 C 152.855469 217.710938 143.125 203.675781 143.125 187.5 C 143.125 171.320312 152.855469 157.289062 167.101562 150.324219 C 154.578125 157.667969 146.128906 171.5625 146.128906 187.5 C 146.128906 203.433594 154.578125 217.332031 167.101562 224.675781 M 231.871094 187.5 C 231.871094 203.675781 222.140625 217.710938 207.894531 224.675781 C 220.417969 217.332031 228.867188 203.433594 228.867188 187.5 C 228.867188 171.5625 220.417969 157.667969 207.894531 150.324219 C 222.140625 157.289062 231.871094 171.320312 231.871094 187.5 Z M 231.871094 187.5 " fill-opacity="1" fill-rule="evenodd"/><path fill="#ffffff" d="M 167.101562 224.675781 C 167.101562 224.675781 158.621094 217.425781 159.082031 203.195312 C 159.539062 188.96875 166.882812 190.070312 168.261719 179.972656 C 169.636719 169.875 165.507812 163.265625 168.71875 156.933594 C 168.71875 156.933594 140.996094 170.882812 153.664062 204.664062 C 153.664062 204.664062 151.09375 186.582031 160.640625 174.648438 C 160.640625 174.648438 148.9375 197.234375 161.101562 221.066406 L 163.726562 222.679688 C 163.726562 222.679688 165.117188 223.644531 167.101562 224.675781 " fill-opacity="1" fill-rule="evenodd"/><path fill="#ffffff" d="M 207.894531 150.324219 C 207.894531 150.324219 216.375 157.574219 215.914062 171.800781 C 215.457031 186.03125 208.113281 184.929688 206.734375 195.023438 C 205.359375 205.121094 209.488281 211.734375 206.277344 218.066406 C 206.277344 218.066406 234 204.113281 221.332031 170.332031 C 221.332031 170.332031 223.902344 188.417969 214.355469 200.351562 C 214.355469 200.351562 226.058594 177.765625 213.890625 153.933594 L 211.269531 152.316406 C 211.269531 152.316406 209.878906 151.355469 207.894531 150.324219 " fill-opacity="1" fill-rule="evenodd"/></svg>